<?xml version="1.0" encoding="UTF-8"?>
<svg width="512" height="512" viewBox="0 0 512 512" fill="none" xmlns="http://www.w3.org/2000/svg">
  <!-- Sun -->
  <circle cx="256" cy="256" r="100" fill="#FFD700"/>
  <!-- Sun rays -->
  <g stroke="#FFD700" stroke-width="20">
    <line x1="256" y1="120" x2="256" y2="40"/>
    <line x1="256" y1="392" x2="256" y2="472"/>
    <line x1="120" y1="256" x2="40" y2="256"/>
    <line x1="392" y1="256" x2="472" y2="256"/>
    <line x1="167" y1="167" x2="107" y2="107"/>
    <line x1="345" y1="345" x2="405" y2="405"/>
    <line x1="167" y1="345" x2="107" y2="405"/>
    <line x1="345" y1="167" x2="405" y2="107"/>
  </g>
  <!-- Cloud -->
  <path d="M400 320c0-35.3-28.7-64-64-64-5.2 0-10.2.6-15.1 1.8-7.3-21.1-27.1-36.2-50.9-36.2-23.8 0-43.6 15.1-50.9 36.2-4.9-1.2-9.9-1.8-15.1-1.8-35.3 0-64 28.7-64 64s28.7 64 64 64h192c35.3 0 64-28.7 64-64z" fill="#FFFFFF"/>
</svg> 